<svg width="211" height="54" viewBox="0 0 211 54" fill="none" xmlns="http://www.w3.org/2000/svg">
<g clip-path="url(#clip0_0_146)">
<path d="M11.8777 25.7218C11.8778 25.4232 11.9367 25.1276 12.0512 24.8519C12.1656 24.5762 12.3333 24.3258 12.5447 24.1152C12.756 23.9046 13.0068 23.7378 13.2827 23.6246C13.5585 23.5113 13.854 23.4537 14.1521 23.4551L17.9229 23.4674C18.5241 23.4674 19.1007 23.7066 19.5258 24.1323C19.951 24.5581 20.1898 25.1356 20.1898 25.7377V40.0178C20.6145 39.8918 21.158 39.7573 21.7561 39.6163C22.1704 39.5187 22.5397 39.2837 22.8041 38.9496C23.0684 38.6154 23.2123 38.2016 23.2124 37.7753V20.0631C23.2124 19.4609 23.4512 18.8834 23.8763 18.4576C24.3014 18.0318 24.878 17.7925 25.4793 17.7924H29.2615C29.8627 17.7925 30.4393 18.0318 30.8645 18.4576C31.2896 18.8834 31.5284 19.4609 31.5284 20.0631V36.5029C31.5284 36.5029 32.4746 36.1194 33.3957 35.7298C33.738 35.5848 34.0301 35.3421 34.2355 35.032C34.441 34.7218 34.5507 34.358 34.551 33.9858V14.3872C34.551 13.7851 34.7897 13.2077 35.2148 12.782C35.6398 12.3563 36.2163 12.117 36.8175 12.1169H40.5957C41.1965 12.1175 41.7725 12.3569 42.1972 12.7826C42.6219 13.2083 42.8604 13.7854 42.8604 14.3872V30.5259C46.136 28.1486 49.4556 25.289 52.09 21.8507C52.4723 21.3517 52.7252 20.7656 52.8262 20.1448C52.9273 19.524 52.8734 18.8879 52.6692 18.2931C51.4497 14.7795 49.5113 11.5596 46.978 8.83932C44.4446 6.11907 41.3721 3.95841 37.9571 2.49561C34.5421 1.0328 30.8597 0.300053 27.1457 0.344265C23.4317 0.388476 19.7678 1.20867 16.3885 2.75236C13.0092 4.29604 9.98881 6.52923 7.52073 9.30902C5.05265 12.0888 3.19118 15.354 2.05545 18.8956C0.919718 22.4372 0.534733 26.1772 0.925128 29.8764C1.31552 33.5755 2.4727 37.1523 4.32261 40.3779C4.64491 40.9343 5.11908 41.3871 5.68942 41.683C6.25976 41.9789 6.90257 42.1056 7.54234 42.0483C8.25706 41.9853 9.14693 41.8963 10.2049 41.772C10.6654 41.7195 11.0905 41.4993 11.3993 41.1532C11.7081 40.8071 11.879 40.3594 11.8795 39.8953V25.7218" fill="#12161C"/>
<path d="M11.7975 48.6236C15.78 51.5251 20.4863 53.2667 25.3958 53.6558C30.3054 54.0448 35.2266 53.066 39.6152 50.8279C44.0038 48.5897 47.6885 45.1792 50.2618 40.9739C52.8351 36.7686 54.1967 31.9324 54.1957 27.0002C54.1957 26.3832 54.1671 25.7758 54.1262 25.1703C44.3724 39.7391 26.3628 46.5499 11.7975 48.6236Z" fill="#F0B90B"/>
<path d="M77.1702 26.5066C78.6006 26.7697 79.8916 27.5317 80.8142 28.6575C81.7341 29.7651 82.2274 31.166 82.2049 32.6065C82.2049 34.6751 81.5125 36.3147 80.1277 37.5253C78.7428 38.7358 76.736 39.3411 74.1072 39.3411H64.2138V14.4478H73.9311C76.4191 14.4478 78.3262 15.0061 79.6524 16.1227C80.9785 17.2392 81.6416 18.773 81.6416 20.7241C81.7054 22.1064 81.2677 23.4652 80.4093 24.5497C79.5699 25.5363 78.4331 26.2231 77.1702 26.5066ZM68.2275 25.1668H73.1918C74.6001 25.1668 75.6739 24.8377 76.4133 24.1795C76.7885 23.8308 77.0825 23.4036 77.2742 22.9283C77.4659 22.4529 77.5506 21.9411 77.5223 21.4292C77.5483 20.9229 77.4624 20.417 77.2707 19.9477C77.079 19.4784 76.7862 19.0572 76.4133 18.7143C75.6739 18.0561 74.5531 17.727 73.0509 17.727H68.2275V25.1668ZM73.2974 36.0267C74.8231 36.0267 76.0025 35.68 76.8358 34.9866C77.2533 34.6305 77.5832 34.1828 77.8 33.6783C78.0168 33.1738 78.1145 32.6261 78.0856 32.0776C78.1129 31.5251 78.0127 30.9737 77.7929 30.4662C77.5731 29.9587 77.2396 29.5087 76.8181 29.1511C75.9732 28.4459 74.7878 28.0933 73.2622 28.0933H68.2275V36.0267H73.2974ZM92.3447 19.6663C94.6215 19.6663 96.4464 20.248 97.8195 21.4116C99.2078 22.6026 100.105 24.2676 100.337 26.0835H96.5344C96.407 25.095 95.9253 24.1865 95.1789 23.5272C94.3526 22.8506 93.3051 22.5051 92.2391 22.5576C91.3966 22.5035 90.5636 22.7607 89.8978 23.2804C89.6228 23.5241 89.4058 23.8263 89.2626 24.1649C89.1194 24.5035 89.0538 24.8699 89.0704 25.2373C89.0594 25.5125 89.1071 25.787 89.2103 26.0423C89.3135 26.2977 89.4698 26.5281 89.6689 26.7182C90.1006 27.1137 90.6103 27.414 91.1652 27.5997C92.0035 27.8784 92.8554 28.1138 93.7178 28.3049C94.9203 28.5599 96.1028 28.9016 97.2561 29.3274C98.1597 29.6799 98.9592 30.2561 99.5798 31.0022C100.267 31.892 100.61 32.9998 100.548 34.1227C100.568 34.8796 100.412 35.6308 100.091 36.3164C99.7698 37.002 99.2935 37.6031 98.6997 38.0718C97.4674 39.0826 95.8068 39.5879 93.7178 39.5879C91.3002 39.5879 89.3462 39.0238 87.8557 37.8955C87.1133 37.3291 86.4922 36.619 86.0295 35.8073C85.5668 34.9956 85.2719 34.0989 85.1623 33.1707H89.0704C89.1171 33.6733 89.2662 34.161 89.5084 34.6037C89.7506 35.0464 90.0808 35.4347 90.4787 35.7446C91.412 36.4387 92.5566 36.7876 93.7178 36.7319C94.5437 36.7791 95.3562 36.5078 95.9887 35.9738C96.2575 35.7328 96.4708 35.4361 96.6136 35.1042C96.7565 34.7724 96.8256 34.4134 96.8161 34.0522C96.8309 33.7523 96.782 33.4528 96.6728 33.1732C96.5636 32.8936 96.3964 32.6404 96.1823 32.4302C95.7259 32.0104 95.186 31.692 94.598 31.4959C93.7444 31.2136 92.8743 30.984 91.9926 30.8083C90.8291 30.5505 89.6827 30.2208 88.5599 29.821C87.6814 29.4932 86.9044 28.9399 86.3066 28.2167C85.6452 27.3561 85.3141 26.2864 85.3736 25.202C85.3519 24.4373 85.5075 23.6779 85.8282 22.9835C86.1489 22.2891 86.626 21.6787 87.222 21.2001C88.4543 20.1775 90.1618 19.6663 92.3447 19.6663ZM113.188 19.6663C115.699 19.6663 117.776 20.3303 119.419 21.6584C121.08 23.016 122.172 24.9468 122.482 27.0708H118.222C118.037 25.9309 117.427 24.904 116.515 24.1971C115.531 23.4782 114.334 23.1118 113.117 23.157C112.392 23.1396 111.672 23.2767 111.005 23.5594C110.337 23.8421 109.737 24.2638 109.244 24.7965C108.212 25.8896 107.695 27.4939 107.695 29.6095C107.695 31.725 108.212 33.3352 109.244 34.44C109.734 34.9773 110.333 35.4032 111.001 35.6891C111.669 35.9749 112.391 36.1141 113.117 36.0972C114.337 36.1423 115.535 35.7691 116.515 35.0395C117.425 34.3235 118.034 33.2919 118.222 32.1482H122.482C122.17 34.2762 121.078 36.2116 119.419 37.5781C117.776 38.918 115.699 39.5879 113.188 39.5879C111.452 39.6226 109.736 39.2098 108.206 38.3891C106.763 37.5909 105.583 36.3905 104.808 34.9337C103.954 33.2921 103.53 31.4601 103.576 29.6095C103.533 27.7704 103.957 25.9505 104.808 24.3205C105.583 22.8637 106.763 21.6633 108.206 20.8651C109.736 20.0444 111.452 19.6316 113.188 19.6663ZM142.692 32.7123C142.699 33.904 142.396 35.077 141.811 36.1149C141.185 37.1991 140.254 38.0755 139.136 38.6359C137.768 39.309 136.257 39.6359 134.735 39.5879C133.174 39.614 131.626 39.3076 130.193 38.6888C128.923 38.1434 127.819 37.2741 126.989 36.1678C126.187 35.0771 125.711 33.7811 125.616 32.4302H129.911C130.021 33.4972 130.516 34.4874 131.302 35.2158C131.742 35.6145 132.256 35.9225 132.815 36.1221C133.373 36.3218 133.966 36.4092 134.559 36.3793C135.073 36.4118 135.588 36.3413 136.075 36.1718C136.562 36.0022 137.01 35.7372 137.393 35.392C137.726 35.0612 137.987 34.6648 138.16 34.2279C138.332 33.7909 138.413 33.323 138.396 32.8534C138.428 32.0528 138.165 31.2685 137.657 30.6496C137.155 30.0668 136.529 29.6031 135.826 29.2921C135.098 28.963 134.101 28.5869 132.833 28.1638C131.535 27.7695 130.27 27.2744 129.049 26.6829C128.06 26.1769 127.209 25.439 126.566 24.5321C125.841 23.4384 125.483 22.1413 125.545 20.8298C125.519 19.5828 125.862 18.3559 126.531 17.3039C127.222 16.2645 128.201 15.4496 129.348 14.9591C130.681 14.384 132.122 14.1015 133.573 14.1305C136.108 14.1305 138.12 14.7417 139.611 15.964C140.338 16.549 140.939 17.2756 141.378 18.0998C141.816 18.924 142.084 19.8287 142.163 20.7593H137.833C137.674 19.8293 137.209 18.9792 136.513 18.344C135.7 17.6393 134.646 17.2789 133.573 17.3391C132.595 17.2903 131.632 17.5971 130.862 18.203C130.515 18.5128 130.242 18.8975 130.065 19.3282C129.889 19.7588 129.812 20.2241 129.841 20.6888C129.812 21.4507 130.062 22.1969 130.545 22.7867C131.031 23.3513 131.639 23.7975 132.323 24.0913C133.039 24.4087 134.019 24.7789 135.263 25.202C136.586 25.5975 137.875 26.0987 139.118 26.7006C140.129 27.2178 140.999 27.9742 141.653 28.9043C142.392 30.0317 142.756 31.3649 142.692 32.7123ZM155.331 19.6663C157.843 19.6663 159.92 20.3303 161.563 21.6584C163.223 23.016 164.316 24.9468 164.626 27.0708H160.366C160.18 25.9309 159.57 24.904 158.658 24.1971C157.674 23.4782 156.478 23.1118 155.261 23.157C154.536 23.1396 153.816 23.2767 153.148 23.5594C152.48 23.8421 151.88 24.2638 151.388 24.7965C150.355 25.8896 149.839 27.4939 149.839 29.6095C149.839 31.725 150.355 33.3352 151.388 34.44C151.878 34.9773 152.477 35.4032 153.145 35.6891C153.813 35.9749 154.534 36.1141 155.261 36.0972C156.48 36.1423 157.679 35.7691 158.658 35.0395C159.568 34.3235 160.178 33.2919 160.366 32.1482H164.626C164.313 34.2762 163.221 36.2116 161.563 37.5781C159.92 38.918 157.843 39.5879 155.331 39.5879C153.595 39.6226 151.88 39.2098 150.349 38.3891C148.907 37.5909 147.726 36.3905 146.952 34.9337C146.097 33.2921 145.673 31.4601 145.719 29.6095C145.676 27.7704 146.1 25.9505 146.952 24.3205C147.726 22.8637 148.907 21.6633 150.349 20.8651C151.88 20.0444 153.595 19.6316 155.331 19.6663ZM176.28 19.6663C177.881 19.6194 179.457 20.0756 180.786 20.9709C182.009 21.8136 182.934 23.0235 183.427 24.4263V19.9131H187.44V39.3411H183.427V34.8279C182.934 36.2307 182.009 37.4406 180.786 38.2833C179.457 39.1786 177.881 39.6348 176.28 39.5879C174.69 39.6148 173.124 39.1998 171.755 38.3891C170.405 37.5633 169.323 36.363 168.64 34.9337C167.854 33.2714 167.468 31.448 167.513 29.6095C167.47 27.7825 167.856 25.9711 168.64 24.3205C169.323 22.8912 170.405 21.6909 171.755 20.8651C173.124 20.0544 174.69 19.6395 176.28 19.6663ZM177.512 23.1922C176.718 23.1565 175.927 23.2906 175.189 23.5855C174.451 23.8803 173.785 24.3293 173.234 24.9023C172.166 26.0424 171.632 27.6114 171.632 29.6095C171.632 31.6075 172.166 33.1766 173.234 34.3166C173.785 34.8897 174.451 35.3386 175.189 35.6335C175.927 35.9284 176.718 36.0624 177.512 36.0267C178.574 36.0436 179.621 35.7693 180.54 35.2334C181.438 34.698 182.169 33.9227 182.652 32.9944C183.188 31.9483 183.454 30.7848 183.427 29.6095C183.45 28.4402 183.184 27.2833 182.652 26.2422C182.173 25.3065 181.441 24.5246 180.54 23.9856C179.621 23.4496 178.574 23.1753 177.512 23.1922ZM203.108 19.5957C205.361 19.5957 207.168 20.3244 208.53 21.7818C209.891 23.2392 210.572 25.3196 210.572 28.0228V39.3411H206.558V28.4459C206.558 26.7064 206.112 25.3607 205.22 24.4087C204.746 23.9243 204.174 23.5464 203.543 23.3002C202.911 23.054 202.235 22.9451 201.559 22.9807C200.847 22.9493 200.137 23.0699 199.475 23.3343C198.813 23.5987 198.216 24.001 197.721 24.5145C196.759 25.537 196.277 27.0355 196.277 29.0101V39.3411H192.264V19.9131H196.277V24.1795C196.741 22.79 197.659 21.5976 198.883 20.7946C200.141 19.9843 201.612 19.567 203.108 19.5957Z" fill="#12161C"/>
</g>
<defs>
<clipPath id="clip0_0_146">
<rect width="209.794" height="53.4769" fill="white" transform="translate(0.777344 0.261719)"/>
</clipPath>
</defs>
</svg>
