<svg width="309" height="54" viewBox="0 0 309 54" fill="none" xmlns="http://www.w3.org/2000/svg">
<g clip-path="url(#clip0_0_152)">
<path d="M52.4376 26.7888V26.686C52.3862 12.1359 40.6661 0.261536 26.3217 0.261536C11.9773 0.261536 0.205791 12.1359 0.205791 26.7888C0.205791 41.4435 11.9241 53.294 26.3217 53.294C32.9283 53.2985 39.2823 50.7556 44.0616 46.1944C44.5324 45.7643 44.813 45.1649 44.8417 44.5279C44.8705 43.8909 44.645 43.2686 44.215 42.7979C43.7849 42.3272 43.1855 42.0466 42.5485 42.0178C41.9115 41.989 41.2892 42.2145 40.8185 42.6446L40.7671 42.696C38.7049 44.6564 36.2678 46.1799 33.6022 47.175C30.9366 48.1701 28.0974 48.6163 25.255 48.4868C22.4126 48.3573 19.6257 47.6548 17.0616 46.4214C14.4975 45.1881 12.2091 43.4493 10.3337 41.3095L21.49 23.4189V31.6976C21.49 35.6533 23.0326 36.9406 24.3292 37.3005C25.6257 37.6605 27.5705 37.3997 29.6769 34.0592L35.7977 24.1205C35.9611 23.8303 36.1503 23.5548 36.3596 23.2959V28.3369C36.3596 32.0373 37.8508 35.0197 40.42 36.4576C41.606 37.1034 42.9447 37.4159 44.294 37.3619C45.6433 37.3079 46.9528 36.8894 48.0834 36.1509C51.0511 34.2245 52.6451 30.851 52.4376 26.7888ZM45.6502 31.9951C45.238 32.279 44.7575 32.4476 44.2583 32.4834C43.7592 32.5193 43.2595 32.421 42.811 32.1989C41.7826 31.5837 41.1637 30.1972 41.1637 28.2947V22.4677C41.1637 19.6947 40.0839 17.6874 38.2346 17.1769C35.0962 16.2293 32.7345 20.106 31.8585 21.5458L26.3217 30.4378V19.489C26.2703 16.9712 25.4457 15.4801 23.9031 15.0154C22.8747 14.7087 21.3321 14.8648 19.8428 17.1273L7.45235 36.97C5.80402 33.8291 4.94019 30.336 4.93461 26.7888C4.93461 14.8098 14.5465 5.09319 26.3217 5.09319C38.0969 5.09319 47.7088 14.8098 47.7088 26.7888V26.8935C47.8318 29.2037 47.0899 31.0585 45.652 31.9804L45.6502 31.9951ZM88.8375 17.7407C89.1782 17.9589 89.4628 18.254 89.6686 18.6024C89.8743 18.9507 89.9954 19.3424 90.022 19.7461C90.0185 20.3362 89.786 20.9019 89.3735 21.3239C88.961 21.746 88.4008 21.9914 87.811 22.0086C87.5312 21.9872 87.2546 21.9349 86.9864 21.8525C85.5462 20.7721 83.799 20.179 81.9987 20.1593C77.6298 20.1593 74.6493 23.7036 74.6493 28.1239C74.6493 32.5442 77.683 36.0426 81.9987 36.0426C84.0731 36.0396 86.0646 35.228 87.5502 33.7801C87.9285 33.5138 88.3766 33.3706 88.8375 33.3687C89.2065 33.3646 89.5699 33.4586 89.8906 33.6411C90.2113 33.8236 90.4778 34.088 90.6627 34.4072C90.8477 34.7265 90.9445 35.0892 90.9432 35.4582C90.942 35.8272 90.8427 36.1892 90.6556 36.5072C90.4775 36.8194 90.224 37.0857 89.9174 37.2785C88.4122 38.53 86.6282 39.4011 84.7157 39.8184C82.8033 40.2358 80.8185 40.1871 78.9288 39.6764C77.0391 39.1658 75.3 38.2082 73.858 36.8844C72.4161 35.5606 71.3136 33.9095 70.6437 32.0703C69.9737 30.231 69.7559 28.2576 70.0085 26.3166C70.2612 24.3755 70.977 22.5236 72.0955 20.9172C73.2141 19.3108 74.7025 17.997 76.4353 17.0865C78.1681 16.176 80.0945 15.6956 82.0519 15.6857C84.4723 15.649 86.845 16.3652 88.8375 17.7407ZM101.072 22.8662C98.7655 22.8564 96.5494 23.7613 94.9091 25.3827C93.2688 27.004 92.3382 29.2095 92.3212 31.5158C92.3355 33.8348 93.2593 36.0557 94.894 37.7007C96.5287 39.3457 98.7437 40.2835 101.063 40.3123C105.588 40.3123 109.444 36.2501 109.444 31.5158C109.444 26.7851 105.648 22.8662 101.072 22.8662ZM101.02 36.0279C98.8626 36.0279 97.0629 34.0739 97.0629 31.5543C97.0629 28.9338 98.8626 27.3379 101.02 27.3379C103.028 27.3379 104.721 28.9852 104.721 31.5543C104.721 34.1254 103.028 36.0426 101.02 36.0426V36.0279ZM112.331 37.6366V25.5015C112.325 25.1868 112.382 24.8742 112.498 24.5818C112.615 24.2894 112.788 24.0231 113.008 23.7984C113.229 23.5738 113.492 23.3953 113.782 23.2734C114.072 23.1515 114.383 23.0886 114.698 23.0884C115.331 23.0966 115.936 23.355 116.379 23.807C116.823 24.2591 117.069 24.8682 117.065 25.5015V37.6366C117.07 38.2702 116.823 38.8798 116.38 39.3322C115.936 39.7847 115.332 40.0433 114.698 40.0515C114.068 40.033 113.469 39.7712 113.028 39.321C112.587 38.8707 112.337 38.2671 112.331 37.6366ZM111.971 18.512C111.961 18.1457 112.024 17.781 112.156 17.4391C112.288 17.0973 112.486 16.7851 112.74 16.5207C112.994 16.2563 113.298 16.045 113.634 15.8992C113.97 15.7533 114.332 15.6758 114.698 15.671C115.067 15.6754 115.431 15.7523 115.77 15.8974C116.109 16.0425 116.416 16.253 116.673 16.5169C116.931 16.7807 117.134 17.0927 117.271 17.4351C117.408 17.7774 117.476 18.1433 117.471 18.512C117.471 19.2411 117.182 19.9404 116.666 20.4559C116.15 20.9715 115.451 21.2611 114.722 21.2611C113.993 21.2611 113.294 20.9715 112.778 20.4559C112.263 19.9404 111.971 19.2411 111.971 18.512ZM126.11 31.0585V37.6366C126.11 38.2644 125.86 38.8665 125.416 39.3104C124.973 39.7544 124.37 40.0038 123.743 40.0038C123.115 40.0038 122.513 39.7544 122.069 39.3104C121.625 38.8665 121.375 38.2644 121.375 37.6366V24.9377C121.375 24.4535 121.568 23.9892 121.91 23.6469C122.252 23.3046 122.717 23.1123 123.201 23.1123C123.685 23.1123 124.149 23.3046 124.492 23.6469C124.834 23.9892 125.026 24.4535 125.026 24.9377C125.701 24.2483 126.513 23.7089 127.41 23.3545C128.307 23.0001 129.269 22.8387 130.233 22.8809C134.965 22.8809 137.071 26.4289 137.071 30.491V37.6366C137.071 38.2644 136.822 38.8665 136.378 39.3104C135.934 39.7544 135.332 40.0038 134.704 40.0038C134.076 40.0038 133.474 39.7544 133.03 39.3104C132.586 38.8665 132.337 38.2644 132.337 37.6366V31.0585C132.337 28.9999 132.082 27.2718 129.099 27.2718C126.995 27.2718 126.119 29.0182 126.119 31.0585H126.11ZM152.382 33.5763C152.142 33.5768 151.905 33.521 151.69 33.4131C151.475 33.3053 151.289 33.1486 151.146 32.9555L145.646 26.9926V37.6366C145.655 37.9529 145.6 38.2677 145.485 38.5625C145.37 38.8573 145.197 39.1261 144.976 39.3529C144.756 39.5797 144.492 39.76 144.201 39.8831C143.909 40.0063 143.596 40.0697 143.279 40.0697C142.963 40.0697 142.65 40.0063 142.358 39.8831C142.067 39.76 141.803 39.5797 141.583 39.3529C141.362 39.1261 141.189 38.8573 141.074 38.5625C140.959 38.2677 140.904 37.9529 140.913 37.6366V16.5562C140.986 16.3814 141.107 16.2308 141.262 16.1219C141.417 16.013 141.6 15.9503 141.789 15.941C142.197 16.0102 142.564 16.2297 142.818 16.5562L151.61 26.4289C151.7 26.5561 151.815 26.6637 151.947 26.7451C152.08 26.8266 152.228 26.8802 152.382 26.9027C152.688 26.8433 152.962 26.675 153.153 26.4289L161.942 16.5562C162.064 16.3907 162.217 16.251 162.394 16.1454C162.57 16.0398 162.765 15.9703 162.969 15.941C163.161 15.9362 163.351 15.9934 163.508 16.1042C163.666 16.2149 163.784 16.3734 163.845 16.5562V37.6384C163.851 37.9531 163.794 38.2657 163.677 38.5581C163.561 38.8505 163.388 39.1168 163.167 39.3415C162.947 39.5661 162.684 39.7446 162.394 39.8665C162.104 39.9884 161.792 40.0513 161.478 40.0515C160.845 40.0423 160.241 39.7834 159.798 39.3311C159.355 38.8788 159.108 38.2697 159.112 37.6366V26.9926L153.607 32.9555C153.289 33.3097 152.85 33.5313 152.376 33.5763H152.382ZM196.851 27.2534H196.335C193.354 27.404 192.791 29.1045 192.791 31.0401V37.6182C192.79 38.2459 192.541 38.8477 192.097 39.2915C191.653 39.7354 191.051 39.9849 190.423 39.9854C189.796 39.9844 189.194 39.7344 188.751 39.2902C188.307 38.8461 188.058 38.2441 188.058 37.6164V24.9395C188.059 24.4552 188.252 23.991 188.594 23.6485C188.937 23.3061 189.401 23.1132 189.885 23.1123C190.37 23.1132 190.834 23.3061 191.176 23.6486C191.518 23.9912 191.71 24.4554 191.711 24.9395C193.457 23.2922 194.897 22.9323 196.335 22.879H196.809C197.385 22.8943 197.933 23.1338 198.336 23.5467C198.739 23.9596 198.965 24.5132 198.967 25.0901C198.966 25.6538 198.745 26.1951 198.352 26.599C197.959 27.0029 197.424 27.2377 196.86 27.2534H196.851ZM215.101 36.5054C215.318 36.8451 215.443 37.2344 215.461 37.6366C215.436 38.2562 215.178 38.8434 214.74 39.2819C214.301 39.7204 213.714 39.978 213.094 40.0038C212.275 40.0038 211.552 39.3831 210.988 38.6632L205.541 32.3312V37.5834C205.541 38.2109 205.292 38.8128 204.848 39.2565C204.404 39.7003 203.802 39.9496 203.175 39.9496C202.547 39.9496 201.945 39.7003 201.502 39.2565C201.058 38.8128 200.808 38.2109 200.808 37.5834V18.31C200.807 17.8417 200.946 17.3836 201.205 16.9938C201.465 16.6041 201.835 16.3004 202.267 16.1211C202.7 15.9419 203.176 15.8952 203.635 15.9871C204.095 16.0789 204.516 16.3051 204.847 16.637C205.291 17.0796 205.541 17.6838 205.541 18.3082V30.3368L210.988 24.3243C211.552 23.7054 212.224 23.0388 213.043 23.0388C213.643 23.0652 214.211 23.3191 214.631 23.7488C215.051 24.1785 215.292 24.7519 215.305 25.3527C215.307 25.7341 215.2 26.1081 214.997 26.4307L210.681 31.1632L215.101 36.5127V36.5054ZM243.687 40.259H242.4C238.802 40.259 236.692 38.6632 236.692 33.0602V27.2534H235.462C234.882 27.2534 234.326 27.023 233.915 26.6128C233.505 26.2026 233.275 25.6463 233.275 25.0662C233.275 24.4861 233.505 23.9298 233.915 23.5196C234.326 23.1095 234.882 22.879 235.462 22.879H236.674V18.4073C236.663 17.933 236.795 17.4663 237.054 17.0685C237.312 16.6706 237.685 16.3602 238.123 16.1779C238.413 16.0567 238.725 15.9943 239.039 15.9943C239.672 16.0049 240.275 16.264 240.718 16.7155C241.161 17.167 241.408 17.7748 241.406 18.4073V22.8662H243.357C243.928 22.8835 244.47 23.1249 244.865 23.5383C245.259 23.9517 245.476 24.5038 245.467 25.0754C245.448 25.634 245.221 26.1654 244.831 26.5655C244.44 26.9656 243.915 27.2057 243.357 27.2387H241.406V32.1236C241.406 35.3613 241.557 36.0279 242.997 36.0279H243.669C244.228 36.0303 244.763 36.2538 245.158 36.6495C245.552 37.0452 245.774 37.5809 245.775 38.1398C245.763 38.6945 245.537 39.2229 245.144 39.6153C244.752 40.0076 244.224 40.2336 243.669 40.2462L243.687 40.259ZM266.562 17.7407C266.902 17.9594 267.186 18.2547 267.391 18.603C267.597 18.9512 267.718 19.3427 267.745 19.7461C267.742 20.3363 267.509 20.9023 267.097 21.3244C266.684 21.7466 266.124 21.9919 265.534 22.0086C265.255 21.9861 264.979 21.9337 264.711 21.8525C263.272 20.7713 261.526 20.1781 259.727 20.1593C255.354 20.1593 252.372 23.7036 252.372 28.1239C252.372 32.5442 255.406 36.0426 259.727 36.0426C261.801 36.0396 263.793 35.228 265.278 33.7801C265.655 33.5157 266.103 33.3724 266.562 33.3687C266.84 33.3662 267.115 33.4188 267.372 33.5234C267.63 33.6281 267.863 33.7827 268.06 33.9784C268.387 34.3047 268.596 34.7304 268.655 35.1884C268.713 35.6465 268.618 36.1111 268.384 36.509C268.204 36.8228 267.948 37.0867 267.64 37.2767C266.136 38.5258 264.353 39.3947 262.442 39.8102C260.532 40.2257 258.549 40.1756 256.662 39.664C253.813 38.8938 251.34 37.1169 249.701 34.6626C248.063 32.2084 247.369 29.2433 247.75 26.3168C248.129 23.3899 249.556 20.6996 251.767 18.7448C253.978 16.7899 256.823 15.7031 259.774 15.6857C262.197 15.6396 264.572 16.3587 266.562 17.7407ZM181.994 23.037C181.754 23.0369 181.515 23.085 181.293 23.1785C181.071 23.272 180.871 23.4089 180.703 23.5813C180.534 23.7536 180.403 23.9579 180.315 24.182C180.227 24.4062 180.185 24.6456 180.191 24.8863L180.092 25.4556C179.413 24.6523 178.572 24.0028 177.623 23.5506C176.674 23.0984 175.639 22.8538 174.588 22.8331C169.964 22.8331 166.623 26.7374 166.623 31.4644C166.623 36.1932 169.911 40.259 174.333 40.259C176.184 40.259 179.113 39.4345 180.04 37.6366L180.145 38.2004C180.14 38.4424 180.185 38.6829 180.277 38.9069C180.369 39.1309 180.506 39.3336 180.679 39.5027C180.852 39.6717 181.058 39.8034 181.285 39.8895C181.511 39.9757 181.752 40.0146 181.994 40.0038C182.237 40.0043 182.478 39.9567 182.703 39.8638C182.928 39.771 183.132 39.6347 183.304 39.4627C183.476 39.2907 183.613 39.0864 183.705 38.8616C183.798 38.6368 183.846 38.3959 183.845 38.1526V24.9009C183.838 24.411 183.641 23.9429 183.296 23.5952C182.951 23.2475 182.484 23.0474 181.994 23.037ZM175.104 36.0426C172.998 36.0426 171.35 34.0409 171.35 31.569C171.35 29.099 173.045 27.3085 175.104 27.3085C177.161 27.3085 179.014 29.0035 179.014 31.569C179.014 34.1345 177.212 36.0426 175.104 36.0426ZM232.377 31.1577C232.272 25.8614 228.827 22.879 224.254 22.879C218.576 22.879 216.179 26.9926 216.179 31.7251C216.179 37.7413 220.142 40.3105 224.923 40.3105C226.721 40.3105 228.623 40.0515 230.061 38.9717C230.36 38.7968 230.61 38.5502 230.79 38.2543C230.969 37.9584 231.072 37.6224 231.089 37.2767C231.093 36.7678 230.897 36.2779 230.542 35.9124C230.188 35.547 229.705 35.3352 229.196 35.3227C228.761 35.3264 228.335 35.4513 227.966 35.6826C226.99 36.0991 225.939 36.3086 224.879 36.2978C223.696 36.2978 220.971 35.8241 220.971 33.0088H230.52C231.009 32.9994 231.475 32.8016 231.821 32.4566C232.167 32.1116 232.366 31.6462 232.377 31.1577ZM220.96 29.964C220.96 27.9623 223.072 27.2957 224.353 27.2957C225.637 27.2957 227.747 27.9623 227.799 29.964H220.96ZM285.422 23.037C285.182 23.0371 284.943 23.0852 284.722 23.1786C284.5 23.2719 284.299 23.4086 284.131 23.5806C283.963 23.7529 283.831 23.9573 283.744 24.1816C283.656 24.406 283.615 24.6456 283.622 24.8863L283.52 25.4556C282.842 24.6522 282.001 24.0027 281.053 23.5504C280.104 23.0982 279.07 22.8536 278.019 22.8331C273.392 22.8331 270.049 26.7374 270.049 31.4644C270.049 36.1932 273.362 40.259 277.759 40.259C279.61 40.259 282.544 39.4345 283.466 37.6366L283.571 38.2004C283.568 38.4421 283.614 38.6819 283.706 38.9054C283.798 39.1289 283.935 39.3313 284.107 39.5006C284.28 39.6698 284.486 39.8018 284.713 39.8884C284.939 39.9749 285.18 40.0142 285.422 40.0038C285.788 40.0036 286.146 39.895 286.451 39.6917C286.755 39.4885 286.993 39.1996 287.134 38.8615C287.226 38.6375 287.273 38.3969 287.273 38.1526V24.9009C287.265 24.4113 287.068 23.9437 286.723 23.5962C286.378 23.2487 285.912 23.0483 285.422 23.037ZM278.53 36.0426C276.477 36.0426 274.778 34.0409 274.778 31.569C274.778 29.099 276.425 27.3085 278.53 27.3085C280.636 27.3085 282.44 29.0035 282.44 31.569C282.44 34.1345 280.651 36.0426 278.541 36.0426H278.53ZM300.751 22.8662C299.72 22.8474 298.697 23.0382 297.743 23.4272C296.788 23.8161 295.923 24.395 295.199 25.1287C295.199 23.9497 294.428 23.0737 293.401 23.0737C293.158 23.073 292.917 23.1203 292.692 23.2131C292.466 23.3058 292.262 23.442 292.09 23.614C291.917 23.786 291.781 23.9904 291.687 24.2153C291.594 24.4402 291.546 24.6814 291.547 24.9248V44.874C291.548 45.5009 291.798 46.1016 292.241 46.5449C292.684 46.9882 293.285 47.2379 293.912 47.2393C294.539 47.2388 295.141 46.9895 295.585 46.5461C296.028 46.1027 296.278 45.5013 296.279 44.874V38.8725C297.561 39.8458 299.62 40.259 301.012 40.2921C305.485 40.2921 308.726 36.2317 308.726 31.4993C308.726 26.7649 305.329 22.8662 300.751 22.8662ZM300.183 36.0279C298.077 36.0279 296.279 34.1364 296.279 31.5562C296.279 28.976 298.077 27.2957 300.183 27.2957C302.29 27.2957 303.937 28.9907 303.937 31.5562C303.937 34.039 302.295 36.0426 300.183 36.0426V36.0279Z" fill="black"/>
</g>
<defs>
<clipPath id="clip0_0_152">
<rect width="308.521" height="53.2565" fill="white" transform="translate(0.206055 0.261719)"/>
</clipPath>
</defs>
</svg>
