<svg width="121" height="121" viewBox="0 0 121 121" fill="none" xmlns="http://www.w3.org/2000/svg">
<circle cx="60.5" cy="60.5" r="60.5" fill="url(#paint0_radial_0_86)"/>
<circle cx="60.4999" cy="60.5001" r="53.4215" fill="url(#paint1_radial_0_86)" stroke="black" stroke-width="0.605"/>
<path d="M96.9443 71.0253C100.049 68.0975 97.8556 67.0127 96.3711 66.8364C85.9295 72.7626 62.2715 70.4815 51.7476 68.6001C45.2951 67.1597 34.2598 66.6864 41.7382 76.3166C51.0862 88.3544 84.5097 86.1497 89.4923 84.2095C92.3732 83.3094 97.3852 79.6803 94.3868 72.3649C93.0526 72.828 91.3678 73.2259 89.4923 73.5654C90.6564 74.9272 90.4771 76.0258 90.2419 76.4048C88.3758 80.0159 80.117 80.3926 72.6042 79.8028C71.4305 79.7107 70.275 79.5949 69.1649 79.4642C67.0383 79.2139 65.0785 78.9087 63.4767 78.6095C54.6662 77.7251 47.6353 74.3639 44.9306 72.6227C44.7861 72.5296 44.7748 72.3257 44.9042 72.2125C44.9654 72.159 45.0477 72.1369 45.1275 72.1524C47.183 72.5536 49.4375 72.9208 51.7476 73.2521C59.1423 74.3124 67.1059 75.004 70.9286 75.2584C73.5352 75.1909 77.1595 75.0082 80.894 74.671C83.84 74.405 86.8546 74.0429 89.4923 73.5654C91.3678 73.2259 93.0526 72.828 94.3868 72.3649C95.5308 71.9678 96.4169 71.5227 96.9443 71.0253Z" fill="url(#paint2_radial_0_86)"/>
<path d="M90.2419 76.4048C90.4771 76.0258 90.6564 74.9272 89.4923 73.5654C86.8546 74.0429 83.84 74.405 80.894 74.671C81.7758 78.1167 75.7349 79.5279 72.6042 79.8028C80.117 80.3926 88.3758 80.0159 90.2419 76.4048Z" fill="url(#paint3_radial_0_86)"/>
<path d="M80.894 74.671C77.1595 75.0082 73.5352 75.1909 70.9286 75.2584C67.1059 75.004 59.1423 74.3124 51.7476 73.2521C55.7308 74.9169 64.7907 78.49 69.1649 79.4642C70.275 79.5949 71.4305 79.7107 72.6042 79.8028C75.7349 79.5279 81.7758 78.1167 80.894 74.671Z" fill="#FF1270"/>
<path fill-rule="evenodd" clip-rule="evenodd" d="M93.3285 41.4821L93.064 40.8207C92.6061 40.4485 92.1249 40.1113 91.6237 39.8065C90.0713 38.8626 88.3276 38.2307 86.4939 37.8395C84.6417 33.5899 81.9579 31.2348 78.9979 30.1163C73.2202 27.9329 66.3904 30.461 62.6389 32.8082C60.9414 31.411 59.1368 30.4818 57.6562 29.9571C41.1473 30.72 37.4904 44.4843 37.7256 51.2711C23.1921 65.346 30.3766 80.3405 35.7855 86.0784C49.5991 91.1639 76.0211 96.6902 89.4923 84.2095C84.5097 86.1497 51.0862 88.3544 41.7382 76.3166C34.2598 66.6864 45.2951 67.1597 51.7476 68.6001C62.2715 70.4815 85.9295 72.7626 96.3711 66.8364C95.983 63.4852 93.8577 60.5309 92.8435 59.4726C93.2698 59.1568 94.1222 58.2274 94.1222 57.0366C94.6348 56.8804 95.1253 56.708 95.5774 56.5183C98.4347 55.3189 98.5317 53.3729 98.223 52.5498C100.375 48.7048 98.1201 46.2443 96.7238 45.4947C97.4646 43.2371 94.769 41.879 93.3285 41.4821Z" fill="url(#paint4_radial_0_86)"/>
<path d="M55.8925 29.4885C40.6773 29.2587 34.7857 38.766 33.1368 46.2443C24.5668 53.3582 12.5688 71.0782 33.1368 85.0473C33.9553 85.385 34.8409 85.7307 35.7855 86.0784C30.3766 80.3405 23.1921 65.346 37.7256 51.2711C37.4904 44.4843 41.1473 30.72 57.6562 29.9571C56.9895 29.7208 56.3884 29.5665 55.8925 29.4885Z" fill="#FFD353"/>
<path d="M73.927 53.9167C74.95 52.1529 74.5885 49.6837 74.2798 48.6695C74.2798 48.4952 74.2391 48.2996 74.1721 48.0963C73.9543 47.4352 73.4585 46.6922 73.1774 46.3325C63.7236 41.7114 51.5712 48.111 46.6768 51.8884C62.0301 62.0564 71.0937 57.1143 73.4573 54.534C73.6664 54.3057 73.8231 54.0959 73.927 53.9167Z" fill="white"/>
<path d="M98.223 52.5498C100.375 48.7048 98.1201 46.2443 96.7238 45.4947C86.2117 42.9549 77.3811 46.553 74.2798 48.6695C74.5885 49.6837 74.95 52.1529 73.927 53.9167C77.8808 55.754 88.2753 58.0528 98.223 52.5498Z" fill="white"/>
<path d="M90.2419 76.4048C90.4771 76.0258 90.6564 74.9272 89.4923 73.5654C86.8546 74.0429 83.84 74.405 80.894 74.671C81.7758 78.1167 75.7349 79.5279 72.6042 79.8028C80.117 80.3926 88.3758 80.0159 90.2419 76.4048Z" fill="white"/>
<path d="M45.1275 72.1524C45.0477 72.1369 44.9654 72.159 44.9042 72.2125C44.7748 72.3257 44.7861 72.5296 44.9306 72.6227C47.6353 74.3639 54.6662 77.7251 63.4767 78.6095C65.0785 78.9087 67.0383 79.2139 69.1649 79.4642C64.7907 78.49 55.7308 74.9169 51.7476 73.2521C49.4375 72.9208 47.183 72.5536 45.1275 72.1524Z" fill="white"/>
<path d="M62.6389 32.8082C63.5014 33.5182 64.3363 34.349 65.0869 35.3089C67.6808 33.0524 74.0946 28.8547 78.9979 30.1163C73.2202 27.9329 66.3904 30.461 62.6389 32.8082Z" fill="#FFE25D"/>
<path d="M44.0752 40.5561H45.8831C49.9845 39.1451 59.9157 36.9228 66.8289 39.3215C59.6746 34.4256 48.7641 38.0478 44.0752 40.5561Z" fill="#FFD253"/>
<path d="M32.6107 50.9624C32.601 49.5953 32.7554 47.9741 33.1368 46.2443M67.4893 39.8065C67.8126 40.2475 68.4505 41.2176 68.4153 41.5703M67.4893 39.8065C71.5787 38.2662 79.6611 36.3817 86.4939 37.8395M67.4893 39.8065C67.273 39.6363 67.0528 39.4747 66.8289 39.3215M67.4893 39.8065C66.9222 38.0693 66.078 36.5765 65.0869 35.3089M93.3285 41.4821L93.064 40.8207C92.6061 40.4485 92.1249 40.1113 91.6237 39.8065M93.3285 41.4821C94.769 41.879 97.4646 43.2371 96.7238 45.4947M93.3285 41.4821C85.1446 39.2598 76.8451 42.1729 73.7183 43.9073M96.7238 45.4947C98.1201 46.2443 100.375 48.7048 98.223 52.5498M96.7238 45.4947C86.2117 42.9549 77.3811 46.553 74.2798 48.6695M98.223 52.5498C98.5317 53.3729 98.4347 55.3189 95.5774 56.5183C95.1253 56.7081 94.6348 56.8804 94.1222 57.0366M98.223 52.5498C88.2753 58.0528 77.8808 55.754 73.927 53.9167M75.1617 55.5482C76.6251 56.9255 77.7208 57.4237 78.2924 57.5458M78.2924 57.5458C78.4235 57.5738 78.527 57.582 78.601 57.5765C81.0351 58.2821 84.8771 58.3702 86.4939 58.3262C88.0405 58.2395 91.3951 57.8676 94.1222 57.0366M78.2924 57.5458C79.674 58.7319 82.4813 61.4392 82.6577 62.7797M82.4373 60.8836C84.5685 61.2952 89.6334 61.5891 92.8435 59.4726M92.8435 59.4726C93.2698 59.1568 94.1222 58.2274 94.1222 57.0366M92.8435 59.4726C93.8577 60.5309 95.983 63.4852 96.3711 66.8364M68.4153 41.5703C69.9618 41.4967 72.5519 41.9577 73.7183 43.9073M68.4153 41.5703C58.2295 40.7325 50.7334 44.9215 48.176 47.2144C46.13 49.0487 44.1487 49.8306 43.4138 49.9923C40.8034 53.1318 44.5014 52.5645 46.6768 51.8884M74.1721 48.0963C74.3125 46.7928 74.1815 44.6815 73.7183 43.9073M74.1721 48.0963C74.2391 48.2996 74.2798 48.4952 74.2798 48.6695M74.1721 48.0963C73.9543 47.4352 73.4584 46.6922 73.1774 46.3325M75.1617 45.6711C76.8961 44.3776 82.5078 42.0024 91.0797 42.849M74.2798 48.6695C74.5885 49.6837 74.95 52.1529 73.927 53.9167M74.2798 48.6695C74.2798 47.9287 73.5449 46.8028 73.1774 46.3325M73.927 53.9167C73.8231 54.0959 73.6664 54.3057 73.4573 54.534M46.6768 51.8884C51.5712 48.111 63.7236 41.7114 73.1774 46.3325M46.6768 51.8884C62.0301 62.0564 71.0937 57.1143 73.4573 54.534M50.7334 47.3026C52.9529 45.9063 58.494 43.1401 62.9035 43.2459M66.3428 43.1136C67.7979 43.0254 70.9375 43.0254 71.8546 43.7309M47.9114 56.1214C47.9114 56.1214 51.6447 58.9167 55.7602 59.4285C63.8274 60.4317 75.5585 59.2962 73.4573 54.534M50.3366 61.06C54.4374 62.1477 63.8912 63.4764 68.9003 60.0899M34.8154 74.0678C34.1246 72.3775 33.3956 68.4855 36.0059 66.4395M33.1368 46.2443C34.7857 38.766 40.6773 29.2587 55.8925 29.4885C56.3884 29.5665 56.9895 29.7208 57.6562 29.9571M33.1368 46.2443C24.5668 53.3582 12.5688 71.0782 33.1368 85.0473C33.9553 85.385 34.8409 85.7307 35.7855 86.0784M89.4923 84.2095C84.5097 86.1497 51.0862 88.3544 41.7382 76.3166C34.2598 66.6864 45.2951 67.1597 51.7476 68.6001C62.2715 70.4815 85.9295 72.7626 96.3711 66.8364M89.4923 84.2095C92.3732 83.3094 97.3852 79.6803 94.3868 72.3649M89.4923 84.2095C76.0211 96.6902 49.5991 91.1639 35.7855 86.0784M96.3711 66.8364C97.8556 67.0127 100.049 68.0975 96.9443 71.0253C96.4169 71.5227 95.5308 71.9678 94.3868 72.3649M89.4923 73.5654C90.6564 74.9272 90.4771 76.0258 90.2419 76.4048C88.3758 80.0159 80.117 80.3926 72.6042 79.8028M89.4923 73.5654C86.8546 74.0429 83.84 74.405 80.8939 74.671M89.4923 73.5654C91.3678 73.2259 93.0526 72.828 94.3868 72.3649M72.6042 79.8028C75.7349 79.5279 81.7758 78.1167 80.8939 74.671M72.6042 79.8028C71.4305 79.7107 70.275 79.5949 69.1649 79.4642M80.8939 74.671C77.1595 75.0082 73.5352 75.1909 70.9286 75.2584C67.1059 75.004 59.1423 74.3124 51.7476 73.2521M51.7476 73.2521C49.4375 72.9208 47.183 72.5536 45.1275 72.1524C45.0477 72.1369 44.9654 72.159 44.9042 72.2125V72.2125C44.7748 72.3257 44.7861 72.5296 44.9306 72.6227C47.6353 74.3639 54.6662 77.7251 63.4767 78.6095C65.0785 78.9087 67.0383 79.2139 69.1649 79.4642M51.7476 73.2521C55.7308 74.9169 64.7907 78.49 69.1649 79.4642M62.6389 32.8082C60.9414 31.411 59.1368 30.4818 57.6562 29.9571M62.6389 32.8082C63.5014 33.5182 64.3363 34.349 65.0869 35.3089M62.6389 32.8082C66.3904 30.461 73.2202 27.9329 78.9979 30.1163M86.4939 37.8395C84.6417 33.5899 81.9579 31.2348 78.9979 30.1163M86.4939 37.8395C88.3276 38.2307 90.0713 38.8626 91.6237 39.8065M35.7855 86.0784C30.3766 80.3405 23.1921 65.346 37.7256 51.2711C37.4904 44.4843 41.1473 30.72 57.6562 29.9571M66.8289 39.3215C59.6746 34.4256 48.7641 38.0478 44.0752 40.5561H45.8831C49.9845 39.1451 59.9157 36.9228 66.8289 39.3215ZM65.0869 35.3089C67.6808 33.0524 74.0946 28.8547 78.9979 30.1163M69.4735 39.3215L69.9586 40.0711C77.8514 38.3514 87.8963 37.6195 91.6237 39.8065" stroke="black" stroke-width="0.440943"/>
<circle cx="64.4629" cy="51.7562" r="4.23305" fill="black"/>
<circle cx="87.7445" cy="50.257" r="4.23305" fill="black"/>
<defs>
<radialGradient id="paint0_radial_0_86" cx="0" cy="0" r="1" gradientUnits="userSpaceOnUse" gradientTransform="translate(30.4315 9.6195) rotate(54.3239) scale(200.94)">
<stop stop-color="#FADA45"/>
<stop offset="0.359375" stop-color="#DAA829"/>
<stop offset="0.578021" stop-color="#FDE147"/>
<stop offset="0.862764" stop-color="#DEAD2E"/>
<stop offset="1" stop-color="#FDE147"/>
</radialGradient>
<radialGradient id="paint1_radial_0_86" cx="0" cy="0" r="1" gradientUnits="userSpaceOnUse" gradientTransform="translate(144.292 163.895) rotate(-131.194) scale(208.799)">
<stop stop-color="#FADA45"/>
<stop offset="0.359375" stop-color="#DAA829"/>
<stop offset="0.578021" stop-color="#FDE147"/>
<stop offset="0.862764" stop-color="#DEAD2E"/>
<stop offset="1" stop-color="#FDE147"/>
</radialGradient>
<radialGradient id="paint2_radial_0_86" cx="0" cy="0" r="1" gradientUnits="userSpaceOnUse" gradientTransform="translate(53.6162 35.6617) rotate(57.765) scale(74.6489 92.3367)">
<stop stop-color="#FADA45"/>
<stop offset="0.359375" stop-color="#DAA829"/>
<stop offset="0.578021" stop-color="#FDE147"/>
<stop offset="0.862764" stop-color="#DEAD2E"/>
<stop offset="1" stop-color="#FDE147"/>
</radialGradient>
<radialGradient id="paint3_radial_0_86" cx="0" cy="0" r="1" gradientUnits="userSpaceOnUse" gradientTransform="translate(53.6162 35.6617) rotate(57.765) scale(74.6489 92.3367)">
<stop stop-color="#FADA45"/>
<stop offset="0.359375" stop-color="#DAA829"/>
<stop offset="0.578021" stop-color="#FDE147"/>
<stop offset="0.862764" stop-color="#DEAD2E"/>
<stop offset="1" stop-color="#FDE147"/>
</radialGradient>
<radialGradient id="paint4_radial_0_86" cx="0" cy="0" r="1" gradientUnits="userSpaceOnUse" gradientTransform="translate(53.6162 35.6617) rotate(57.765) scale(74.6489 92.3367)">
<stop stop-color="#FADA45"/>
<stop offset="0.359375" stop-color="#DAA829"/>
<stop offset="0.578021" stop-color="#FDE147"/>
<stop offset="0.862764" stop-color="#DEAD2E"/>
<stop offset="1" stop-color="#FDE147"/>
</radialGradient>
</defs>
</svg>
