<svg width="18" height="16" viewBox="0 0 18 16" fill="none" xmlns="http://www.w3.org/2000/svg">
<path fill-rule="evenodd" clip-rule="evenodd" d="M1.24816 6.81543C5.91249 4.78326 9.02277 3.44353 10.579 2.79624C15.0224 0.94809 15.9457 0.627047 16.5475 0.616446C16.6798 0.614114 16.9758 0.646917 17.1675 0.802467C17.3293 0.933811 17.3739 1.11124 17.3952 1.23577C17.4165 1.3603 17.443 1.64397 17.4219 1.86563C17.1811 4.39561 16.1393 10.5352 15.6092 13.3688C15.3849 14.5678 14.9433 14.9698 14.5158 15.0092C13.5866 15.0947 12.8811 14.3951 11.9811 13.8052C10.5729 12.8821 9.77737 12.3075 8.41046 11.4067C6.83075 10.3657 7.85481 9.79357 8.75508 8.85852C8.99068 8.61381 13.0845 4.89014 13.1638 4.55234C13.1737 4.51009 13.1829 4.35262 13.0893 4.26946C12.9958 4.18631 12.8577 4.21474 12.7581 4.23736C12.6168 4.26941 10.3672 5.75634 6.00916 8.69812C5.37061 9.1366 4.79223 9.35024 4.27402 9.33904C3.70274 9.3267 2.60382 9.01603 1.78689 8.75048C0.784884 8.42477 -0.0114866 8.25256 0.0578594 7.69941C0.0939791 7.41129 0.490746 7.11663 1.24816 6.81543Z" fill="white"/>
</svg>
