<svg width="19" height="16" viewBox="0 0 19 16" fill="none" xmlns="http://www.w3.org/2000/svg">
<path d="M5.94965 15.4564C13.0456 15.4564 16.9256 9.57639 16.9256 4.48039C16.9256 4.31239 16.9256 4.14439 16.9177 3.98439C17.6696 3.44039 18.3257 2.76039 18.8456 1.98439C18.1576 2.28839 17.4136 2.49639 16.6297 2.59239C17.4296 2.11239 18.0377 1.36039 18.3257 0.456392C17.5816 0.896392 16.7577 1.21639 15.8777 1.39239C15.1736 0.640391 14.1736 0.176392 13.0617 0.176392C10.9337 0.176392 9.20565 1.90439 9.20565 4.03239C9.20565 4.33639 9.23765 4.63239 9.30965 4.91239C6.10165 4.75239 3.26165 3.21639 1.35765 0.880392C1.02965 1.44839 0.83765 2.11239 0.83765 2.81639C0.83765 4.15239 1.51765 5.33639 2.55765 6.02439C1.92565 6.00839 1.33365 5.83239 0.81365 5.54439C0.81365 5.56039 0.81365 5.57639 0.81365 5.59239C0.81365 7.46439 2.14165 9.01639 3.90965 9.37639C3.58965 9.46439 3.24565 9.51239 2.89365 9.51239C2.64565 9.51239 2.40565 9.48839 2.16565 9.44039C2.65365 10.9764 4.07765 12.0884 5.76565 12.1204C4.44565 13.1524 2.78165 13.7684 0.97365 13.7684C0.66165 13.7684 0.35765 13.7524 0.0536499 13.7124C1.74165 14.8164 3.77365 15.4564 5.94965 15.4564Z" fill="black"/>
</svg>
